<svg xmlns="http://www.w3.org/2000/svg" xmlns:xlink="http://www.w3.org/1999/xlink" viewBox="0 0 376.9 100.61"><defs><style>.a,.b,.c,.d,.e,.f{stroke:#212121;stroke-linejoin:round;stroke-width:2px;}.a{fill:url(#a);}.b{fill:url(#b);}.c{fill:url(#c);}.d{fill:url(#d);}.e{fill:url(#e);}.f{fill:url(#f);}.g{font-size:13.42px;font-family:ProximaNova-Regular, Proxima Nova;letter-spacing:-0.02em;}.h{letter-spacing:-0.01em;}.i{letter-spacing:-0.05em;}.j{letter-spacing:0.01em;}.k{letter-spacing:0em;}.l{letter-spacing:-0.01em;}.m{letter-spacing:-0.01em;}.n{letter-spacing:-0.01em;}.o{letter-spacing:0em;}.p{letter-spacing:-0.1em;}.q{letter-spacing:-0.01em;}.r{letter-spacing:-0.01em;}.s{letter-spacing:-0.01em;}.t{letter-spacing:0em;}.u{letter-spacing:-0.09em;}.v{letter-spacing:-0.02em;}.w{letter-spacing:-0.01em;}.x{letter-spacing:-0.02em;}.y{letter-spacing:-0.02em;}.z{letter-spacing:-0.01em;}.aa{letter-spacing:-0.01em;}.ab{letter-spacing:-0.01em;}.ac{letter-spacing:0em;}.ad{letter-spacing:-0.01em;}.ae{letter-spacing:0em;}.af{letter-spacing:0em;}.ag{letter-spacing:-0.01em;}.ah{letter-spacing:-0.01em;}.ai{letter-spacing:0em;}.aj{letter-spacing:-0.09em;}</style><linearGradient id="a" x1="41" y1="79.51" x2="41" y2="53.18" gradientUnits="userSpaceOnUse"><stop offset="0" stop-color="#351212"/><stop offset="0.13" stop-color="#411616"/><stop offset="0.43" stop-color="#551d1d"/><stop offset="0.72" stop-color="#622121"/><stop offset="1" stop-color="#622"/></linearGradient><linearGradient id="b" x1="117.51" y1="78.14" x2="117.51" y2="45.84" xlink:href="#a"/><linearGradient id="c" x1="192.83" y1="78.14" x2="192.83" y2="59.03" xlink:href="#a"/><linearGradient id="d" x1="260.77" y1="78.14" x2="260.77" y2="41.02" xlink:href="#a"/><linearGradient id="e" x1="333.46" y1="78.14" x2="333.46" y2="47.38" xlink:href="#a"/><radialGradient id="f" cx="185.43" cy="64.1" r="374.51" gradientTransform="translate(0 38.46) scale(1 0.4)" gradientUnits="userSpaceOnUse"><stop offset="0.1" stop-color="#c93"/><stop offset="0.3" stop-color="#cc4d33"/><stop offset="0.44" stop-color="#a83e2d"/><stop offset="0.58" stop-color="#8b3228"/><stop offset="0.72" stop-color="#772925"/><stop offset="0.86" stop-color="#6a2423"/><stop offset="1" stop-color="#622"/></radialGradient></defs><title>Logo-CAEPA</title><path class="a" d="M77.23,57.32c-4.43,10.13-14.56,22.19-35,22.19-16.88,0-31-8.41-37.43-22,2.2-.06,4.2-.18,6-.33,2.89-.23,5.35-.56,7.47-.93s3.89-.77,5.41-1.18,2.76-.79,3.83-1.12l1.38-.43.21-.06a17.2,17.2,0,0,0,13.09,5.78,15.63,15.63,0,0,0,7.12-1.71c.53,0,1.07.06,1.63.06a9.38,9.38,0,0,0,1.49-.12,14.23,14.23,0,0,0,1.51-.34c.51-.14,1-.31,1.59-.5L57.25,56c.93-.33,1.93-.7,3.06-1.08s2.36-.72,3.74-1a41.91,41.91,0,0,1,4.16-.73Z"/><path class="b" d="M160,78.14H135l-3-9.79H102.95l-3,9.79H75.07l9.62-26.08c2.12-.3,4.13-.67,6-1.09,2.34-.51,4.49-1.09,6.43-1.67s3.7-1.17,5.25-1.68l2.12-.7c.67-.21,1.29-.4,1.86-.56a15.26,15.26,0,0,1,1.58-.37,7,7,0,0,1,1.27-.14,6.23,6.23,0,0,1,.74,0l-1.09,3.36h8.91c.73.44,1.48.91,2.25,1.4,1.44.92,3,1.94,4.51,3,2.3,1.54,4.74,3.18,7.29,4.76s5.23,3.13,8,4.49a51.63,51.63,0,0,0,8.48,3.36,33.9,33.9,0,0,0,7.75,1.35Z"/><path class="c" d="M221.62,59V78.14H164V67c.87-.14,1.74-.3,2.61-.47l3.07-.64,1.47-.3,1.48-.3,1.48-.28c3.08-.56,2.54-1.39,17.65-1.39,10.41,0,17.47.53,26.15-4.6Z"/><path class="d" d="M289.68,48.86c-4.4,3.11-10.21,4.94-17.32,4.94H254.84V78.14h-23V49.33c6-4.53,11.26-8.29,15-8.3,2.53,0,4.73,1.38,7.52,3.13,4.46,2.8,10,6.28,20.24,6.29h.09C282.14,50.45,286.66,49.73,289.68,48.86Z"/><path class="e" d="M375.9,78.14H351l-3-9.79H318.89l-3,9.79H291l11.35-30.77,1.34.77c3.6,2.12,8.09,4.75,15.32,4.75,3.2,0,5.93,1,8.81,2.08A32.79,32.79,0,0,0,340,57.61H340A55.09,55.09,0,0,0,352.6,56a29.21,29.21,0,0,1,6-.9,27.76,27.76,0,0,1,6,.94c1,.24,2.13.48,3.35.71Z"/><path class="f" d="M57.43,32.29l19.8-9.21C72.68,12.61,62.67,1,42.19,1,19,1,1,16.81,1,40.25A40,40,0,0,0,4.76,57.53c2.2-.06,4.2-.18,6-.33,2.89-.23,5.35-.56,7.47-.93s3.89-.77,5.41-1.18,2.76-.79,3.83-1.12l1.38-.43.21-.06a19.81,19.81,0,0,1-4.78-13.23c0-10.58,7.39-19,17.87-19A16.24,16.24,0,0,1,57.43,32.29ZM49.32,57.55c.53,0,1.07.06,1.63.06a9.38,9.38,0,0,0,1.49-.12,14.23,14.23,0,0,0,1.51-.34c.51-.14,1-.31,1.59-.5L57.25,56c.93-.33,1.93-.7,3.06-1.08s2.36-.72,3.74-1a41.91,41.91,0,0,1,4.16-.73l-10.79-5A16.32,16.32,0,0,1,49.32,57.55ZM132,2.25H103.06L84.69,52.06c2.12-.3,4.13-.67,6-1.09,2.34-.51,4.49-1.09,6.43-1.67s3.7-1.17,5.25-1.68l2.12-.7c.67-.21,1.29-.4,1.86-.56a15.26,15.26,0,0,1,1.58-.37,7,7,0,0,1,1.27-.14,6.23,6.23,0,0,1,.74,0l7.56-23.38,8.64,26.74h-8.38c.73.44,1.48.91,2.25,1.4,1.44.92,3,1.94,4.51,3,2.3,1.54,4.74,3.18,7.29,4.76s5.23,3.13,8,4.49a51.63,51.63,0,0,0,8.48,3.36,33.9,33.9,0,0,0,7.75,1.35Zm89.66,19.11V2.25H164V67c.87-.14,1.74-.3,2.61-.47l3.07-.64,1.47-.3,1.48-.3,1.48-.28c3.08-.56,2.54-1.39,17.65-1.39,10.41,0,17.47.53,26.15-4.6H187V49.36h33.79V30.24H187V21.36ZM272.36,2.25h-40.5V49.33c6-4.53,11.26-8.29,15-8.3,2.53,0,4.73,1.38,7.52,3.13,4.46,2.8,10,6.28,20.24,6.29h.09c7.38,0,11.9-.72,14.92-1.59h0c6.56-4.63,10-12.11,10-20.55C299.67,14.09,290.12,2.25,272.36,2.25Zm-3,32.43H254.84V21.36h14.57a6.57,6.57,0,0,1,6.93,6.71C276.34,32.06,273.27,34.68,269.41,34.68Zm78.5-32.43H319L302.36,47.38l1.34.77c3.6,2.12,8.09,4.75,15.32,4.75,3.2,0,5.93,1,8.81,2.08A32.79,32.79,0,0,0,340,57.61H340A55.09,55.09,0,0,0,352.6,56a29.21,29.21,0,0,1,6-.9,27.76,27.76,0,0,1,6,.94c1,.24,2.13.48,3.35.71Zm-23.09,47,8.64-26.74,8.64,26.74Z"/><text class="g" transform="translate(-0.1 96.25)">C<tspan class="h" x="8.75" y="0">O</tspan><tspan class="i" x="18.93" y="0">L</tspan><tspan class="h" x="25.11" y="0">O</tspan><tspan class="j" x="35.3" y="0">R</tspan><tspan class="k" x="43.62" y="0">A</tspan><tspan class="l" x="52.41" y="0">D</tspan><tspan class="m" x="61.65" y="0">O </tspan><tspan class="k" x="75.11" y="0">A</tspan><tspan class="n" x="83.89" y="0">D</tspan><tspan class="o" x="93.12" y="0">U</tspan><tspan class="p" x="102.47" y="0">L</tspan><tspan class="q" x="107.95" y="0">T </tspan><tspan class="r" x="118.79" y="0">E</tspan><tspan class="n" x="126.32" y="0">D</tspan><tspan class="s" x="135.54" y="0">U</tspan><tspan class="t" x="144.78" y="0">C</tspan><tspan class="u" x="153.87" y="0">A</tspan><tspan class="v" x="161.54" y="0">T</tspan><tspan class="w" x="168.98" y="0">IO</tspan><tspan class="q" x="182.29" y="0">N </tspan><tspan class="x" x="194.99" y="0">P</tspan><tspan class="y" x="202.66" y="0">R</tspan><tspan class="h" x="210.59" y="0">O</tspan><tspan class="z" x="220.78" y="0">F</tspan><tspan class="aa" x="227.97" y="0">E</tspan><tspan class="ab" x="235.49" y="0">S</tspan><tspan class="ac" x="243.23" y="0">S</tspan><tspan class="ad" x="251.04" y="0">IO</tspan><tspan class="ae" x="264.35" y="0">NA</tspan><tspan class="q" x="282.6" y="0">L </tspan><tspan class="af" x="292.63" y="0">A</tspan><tspan class="ab" x="301.47" y="0">S</tspan><tspan class="x" x="309.21" y="0">S</tspan><tspan class="ag" x="316.87" y="0">O</tspan><tspan class="ah" x="326.99" y="0">C</tspan><tspan class="ai" x="335.95" y="0">I</tspan><tspan class="aj" x="339.1" y="0">A</tspan><tspan class="x" x="346.77" y="0">T</tspan><tspan class="ad" x="354.21" y="0">IO</tspan><tspan class="q" x="367.53" y="0">N</tspan></text></svg>